<svg xmlns="http://www.w3.org/2000/svg" width="11.068" height="22.048" viewBox="0 0 11.068 22.048">
  <g id="facebookl" transform="translate(5.534 11.024)">
    <g id="facebookl-2" data-name="facebookl" transform="translate(-5.534 -11.024)">
      <path id="Path_1852" data-name="Path 1852" d="M7.058,22.148h0a.774.774,0,0,1-.774-.774V11.118a.774.774,0,0,1,.774-.774h2.19c.055-.553.111-1.1.166-1.637l.044-.443H7.069a.774.774,0,0,1-.774-.774V5.908a5.974,5.974,0,0,1,.022-.8,1.594,1.594,0,0,1,1.7-1.493h1.46V1.638h-2.9l-.188.033-.5.111a2.859,2.859,0,0,0-2.19,2.367A7.545,7.545,0,0,0,3.6,5.454v.232c-.011.4-.011.8-.011,1.217v.575a.774.774,0,0,1-.774.774H1.549v2.08H2.8a.774.774,0,0,1,.774.774v5.8a.774.774,0,1,1-1.549,0V11.893H.763A.774.774,0,0,1,0,11.118V7.479A.774.774,0,0,1,.774,6.7h1.25c0-.354,0-.719.011-1.073V5.4A8.817,8.817,0,0,1,2.19,3.817,4.4,4.4,0,0,1,5.476.277c.21-.055.42-.1.62-.133L6.339.1h3.916a.774.774,0,0,1,.774.774V4.381a.774.774,0,0,1-.774.774H7.877a.487.487,0,0,0-.022.111,4.757,4.757,0,0,0-.011.6v.83h2.445a.774.774,0,0,1,.774.774c0,.033,0,.055,0,.077a1.98,1.98,0,0,1,0,.288l-.111,1.04c-.077.7-.144,1.416-.21,2.124a.88.88,0,0,1-1.018.907H7.843v9.47a.774.774,0,0,1-.785.774Z" transform="translate(0 -0.1)" fill="#3f3f3f"/>
      <path id="Path_1853" data-name="Path 1853" d="M12.461,167.181a1.881,1.881,0,1,1-1.881-1.881,1.881,1.881,0,0,1,1.881,1.881" transform="translate(-7.738 -147.024)" fill="#00c73c"/>
    </g>
  </g>
</svg>
