<svg xmlns="http://www.w3.org/2000/svg" width="24.681" height="20.464" viewBox="0 0 24.681 20.464">
  <g id="twitter" transform="translate(12.34 10.232)">
    <g id="twitter-2" data-name="twitter" transform="translate(-12.34 -10.232)">
      <path id="Path_1862" data-name="Path 1862" d="M8.124,20.412A14.366,14.366,0,0,1,1.28,18.661l-.555-.321L.491,18.2A.7.7,0,0,1,.9,16.91,9.31,9.31,0,0,0,6.028,15.9a5.641,5.641,0,0,1-3.317-3.428.7.7,0,0,1,.259-.826,5.477,5.477,0,0,1-1.961-4.3.7.7,0,0,1,.74-.666,5.389,5.389,0,0,1-.567-1.517,5.487,5.487,0,0,1,.6-3.934.7.7,0,0,1,1.147-.111A13.02,13.02,0,0,0,11.49,5.8,5.462,5.462,0,0,1,11.5,5.01,5.248,5.248,0,0,1,14.98.362a5.255,5.255,0,0,1,5.7,1.06A8.94,8.94,0,0,0,22.921.547l.21-.111a.74.74,0,0,1,.382-.074.691.691,0,0,1,.654.925,5.672,5.672,0,0,1-.493,1.085l.185-.062a.7.7,0,0,1,.765.2l.049.049a.7.7,0,0,1,.012.913l-.333.395a11.992,11.992,0,0,1-.839.962,11,11,0,0,1-1.036.913,14.489,14.489,0,0,1-1.862,7.374.7.7,0,0,1-1.221-.678,13.12,13.12,0,0,0,1.689-6.782,1.085,1.085,0,0,1,.419-.925l.074-.062.469-.395-.123.025-.247.049a.7.7,0,0,1-.543-1.258,5.487,5.487,0,0,0,.629-.53q-.456.148-.937.259a1.023,1.023,0,0,1-.974-.259,3.891,3.891,0,0,0-4.378-.9,3.822,3.822,0,0,0-2.59,3.477,5.857,5.857,0,0,0,.012.9c.012.173.025.333.025.506a.7.7,0,0,1-.752.715A14.284,14.284,0,0,1,2.6,2.84a4.008,4.008,0,0,0-.062,2.022A4.2,4.2,0,0,0,4.24,7.39a.7.7,0,0,1-.432,1.258,5.216,5.216,0,0,1-1.282-.2,4.135,4.135,0,0,0,3.1,3.009.7.7,0,0,1,.012,1.356,5.117,5.117,0,0,1-1.11.173A4.117,4.117,0,0,0,7.89,14.875a.7.7,0,0,1,.358,1.258A10.531,10.531,0,0,1,3.574,18.18a12.99,12.99,0,0,0,7.4.53,12.381,12.381,0,0,0,4.168-1.665.7.7,0,1,1,.752,1.184,13.774,13.774,0,0,1-4.637,1.85,15.39,15.39,0,0,1-3.132.333ZM23.76,1.693Z" transform="translate(-0.166 0.052)" fill="#3f3f3f"/>
      <path id="Path_1863" data-name="Path 1863" d="M135.183,114.041a1.541,1.541,0,1,1-1.541-1.541,1.541,1.541,0,0,1,1.541,1.541" transform="translate(-115.831 -98.621)" fill="#00c73c"/>
    </g>
  </g>
</svg>
