<svg xmlns="http://www.w3.org/2000/svg" width="16.006" height="16.006" viewBox="0 0 16.006 16.006">
  <g id="world" transform="translate(-408.997 -610.997)">
    <g id="Web">
      <path id="Trazado_4" data-name="Trazado 4" d="M411.4,613.4a8,8,0,1,1,0,11.2A7.981,7.981,0,0,1,409,619,7.266,7.266,0,0,1,411.4,613.4Zm6.667,12a3.276,3.276,0,0,0,2-1.2,5.823,5.823,0,0,0,.933-2.8,2.209,2.209,0,0,0-.667-1.6,2.346,2.346,0,0,0-1.733-.8h-1.333a3.892,3.892,0,0,1-1.2-.267,1.207,1.207,0,0,1-.4-.933.691.691,0,0,1,.267-.533,1.007,1.007,0,0,1,.533-.267.911.911,0,0,1,.667.4c.267.133.4.267.533.267a.534.534,0,0,0,.666-.667,2.125,2.125,0,0,0-.667-1.333,5.514,5.514,0,0,0,.667-2.533.288.288,0,0,0-.267-.267A4.128,4.128,0,0,0,417,612.6a6.676,6.676,0,0,0-3.467,1.067,3.354,3.354,0,0,0-1.2,2.667,3.413,3.413,0,0,0,1.067,2.533,3.645,3.645,0,0,0,2.533,1.066h0v.533a1.714,1.714,0,0,0,.534,1.334,1.94,1.94,0,0,0,1.2.8V625c0,.133,0,.133.133.267S417.933,625.4,418.067,625.4Z" fill="#02b1ff"/>
    </g>
  </g>
</svg>
