<svg xmlns="http://www.w3.org/2000/svg" width="24.027" height="17.387" viewBox="0 0 24.027 17.387">
  <g id="youtube" transform="translate(12.014 8.694)">
    <g id="youtube-2" data-name="youtube" transform="translate(-12.014 -8.694)">
      <path id="Path_1856" data-name="Path 1856" d="M6.423,115.612A1.612,1.612,0,1,1,4.812,114a1.612,1.612,0,0,1,1.612,1.612" transform="translate(-2.812 -100.187)" fill="#00c73c"/>
      <path id="Path_1857" data-name="Path 1857" d="M67.927,46.09a.727.727,0,0,1-.727-.727V38.59a.727.727,0,0,1,1.054-.654l7.052,3.49a.727.727,0,0,1-.012,1.309l-7.052,3.284A.727.727,0,0,1,67.927,46.09Zm.727-6.325v4.459l4.641-2.169Z" transform="translate(-59.058 -33.271)" fill="#3f3f3f"/>
      <path id="Path_1858" data-name="Path 1858" d="M18.66,17.387H5.368a.727.727,0,1,1,0-1.454H18.66a3.926,3.926,0,0,0,3.914-3.914V5.368A3.926,3.926,0,0,0,18.66,1.454H5.368A3.926,3.926,0,0,0,1.454,5.368v6.64a.727.727,0,0,1-1.454,0V5.368A5.38,5.38,0,0,1,5.368,0H18.66a5.38,5.38,0,0,1,5.368,5.368v6.64a5.38,5.38,0,0,1-5.368,5.38Z" transform="translate(0 0)" fill="#3f3f3f"/>
    </g>
  </g>
</svg>
